<?xml version="1.0" encoding="UTF-8"?>
<svg id="Capa_2" data-name="Capa 2" xmlns="http://www.w3.org/2000/svg" xmlns:xlink="http://www.w3.org/1999/xlink" viewBox="0 0 1263.12 546.44">
  <defs>
    <style>
      .cls-1 {
        opacity: .41;
      }

      .cls-2 {
        fill: none;
        stroke: #000;
        stroke-miterlimit: 10;
        stroke-width: .35px;
      }

      .cls-3 {
        fill: url(#linear-gradient);
      }
    </style>
    <linearGradient id="linear-gradient" x1="-123.23" y1="462.01" x2="1131.48" y2="462.01" gradientTransform="translate(114.86 -174.7) rotate(-1.58)" gradientUnits="userSpaceOnUse">
      <stop offset=".11" stop-color="#28badf"/>
      <stop offset=".75" stop-color="#76fffe"/>
    </linearGradient>
  </defs>
  <g id="Capa_1-2" data-name="Capa 1">
    <g class="cls-1">
      <path class="cls-3" d="M1159.36,58.63c2.19-1.39,4.38-2.78,6.56-4.2,18.07-11.74,35.92-24.39,53.5-38.09-.59-5.33-1.17-10.67-1.76-16-13.72,11.14-27.5,21.53-41.3,31.27-2.19,1.54-4.38,3.07-6.57,4.58-36.91,25.46-74.04,46.38-111.04,64.15-1.99.96-3.98,1.9-5.97,2.84-31.74,14.95-63.38,27.61-94.74,38.6-1.86.65-3.72,1.3-5.58,1.94-28.41,9.79-56.59,18.22-84.42,25.63-1.77.47-3.54.94-5.31,1.4-26.29,6.88-52.26,12.86-77.83,18.12-1.72.35-3.43.7-5.14,1.05-25.04,5.07-49.69,9.45-73.88,13.27-1.68.27-3.36.53-5.05.79-24.51,3.8-48.54,7.02-72.01,9.75-1.68.19-3.35.39-5.02.58-24.64,2.8-48.67,5.04-72.02,6.8-1.69.13-3.38.25-5.07.37-25.48,1.85-50.15,3.12-73.93,3.85-1.73.05-3.46.1-5.19.15-27.24.76-53.29.81-78.02.24-1.81-.04-3.6-.09-5.4-.14-12.66-.34-24.97-.85-36.92-1.5-16.49-.91-32.54-2.11-48.12-3.59-1.92-.18-3.83-.37-5.73-.56-34.64-3.47-66.9-8.34-96.41-14.22-2.1-.42-4.19-.84-6.26-1.27-45.84-9.44-84.83-21.37-115.57-32.79-2.45-.91-4.84-1.81-7.18-2.71-.72-.28-1.45-.56-2.16-.83-26.68-10.33-48.76-20.77-65.63-29.53.59,5.39,1.19,10.78,1.78,16.17,15.96,7.83,35.87,16.73,59.47,25.56,6.46,2.42,13.35,4.88,20.63,7.35,2.32.79,4.68,1.58,7.09,2.36,30.98,10.17,68.62,20.14,111.88,27.86,24.29,31.29,48.31,59.69,72.13,85.8-28.95,1.63-56.13,2.85-81.29,3.69-2,.07-4,.13-5.98.19-35.06,1.09-66.05,1.41-92.33,1.24-28.01-27.36-56.28-58.11-84.89-92.97.29,2.61.57,5.22.86,7.84,26.13,31.6,51.98,59.78,77.6,85.08-29.61-.28-52.77-1.17-68.46-1.95.56,5.07,1.12,10.14,1.67,15.21,18.18.47,45.55.83,80.7.23,2.11-.04,4.24-.08,6.4-.12,26.07-.51,56.17-1.55,89.75-3.27,10.02,9.85,20,19.29,29.96,28.36-29.19,3.51-56.26,6.72-80.82,9.56-2.07.24-4.12.48-6.15.71-37.55,4.32-68.9,7.71-92.55,10.13-8.18-6.74-16.37-13.74-24.59-21.03.26,2.32.51,4.65.77,6.97,5.75,5.05,11.49,9.96,17.22,14.74-5.67.57-10.81,1.09-15.42,1.54.56,5.05,1.11,10.09,1.67,15.14,8.27-1.01,18.22-2.25,29.69-3.71,2.14-.27,4.34-.55,6.59-.84,24.24-3.1,54.57-7.1,89.88-11.86,37.11,30.43,73.81,55.66,110.26,77.4-22.41,6.99-43.64,14.08-63.55,21.1-2.02.71-4.03,1.42-6.03,2.14-26.56,9.47-50.67,18.76-71.95,27.42-29.03-12.36-58.18-26.99-87.51-44.56.23,2.11.46,4.21.7,6.32,26.95,15.91,53.75,29.35,80.45,40.84-30.86,12.7-55.4,23.84-72.45,31.83.55,5.04,1.11,10.08,1.66,15.12.08-.04.15-.07.23-.11,2.14-1.06,4.4-2.17,6.78-3.34,19.39-9.47,46.63-22.29,80.47-36.56,2.1-.89,4.23-1.78,6.38-2.67,20.93-8.72,44.23-17.93,69.62-27.21,2-.73,4.01-1.46,6.03-2.19,19.36-7,39.88-14.03,61.44-20.93,1.91-.61,3.83-1.22,5.75-1.83,17.77-5.62,36.22-11.16,55.27-16.53,1.84-.52,3.68-1.03,5.52-1.55,16.46-4.58,33.35-9.04,50.63-13.33,1.78-.44,3.56-.88,5.34-1.32,15.44-3.79,31.17-7.44,47.18-10.93,1.73-.38,3.47-.75,5.2-1.13,6.62-1.43,13.29-2.83,20-4.2,8.11-1.66,16.34-3.29,24.67-4.88,1.7-.32,3.4-.65,5.11-.97,14.03-2.64,28.37-5.18,42.98-7.59,1.68-.28,3.36-.55,5.05-.83,13.77-2.24,27.78-4.36,41.98-6.36,1.67-.23,3.34-.47,5.02-.7,13.7-1.89,27.59-3.66,41.62-5.29,1.67-.19,3.35-.39,5.02-.58,13.83-1.57,27.8-3.02,41.89-4.32,1.68-.16,3.37-.31,5.06-.46,14.16-1.27,28.43-2.4,42.79-3.38,1.71-.12,3.42-.23,5.13-.34,14.71-.96,29.51-1.77,44.36-2.4,1.75-.07,3.5-.15,5.24-.22,15.52-.62,31.11-1.06,46.71-1.31,1.8-.03,3.6-.05,5.39-.08,16.64-.22,33.31-.21,49.96.01,1.86.02,3.72.05,5.58.08,18.14.3,36.26.87,54.3,1.72,1.94.09,3.88.18,5.82.28,20.13,1.01,40.16,2.36,60,4.05,2.04.17,4.07.35,6.11.53,22.76,2.03,45.26,4.52,67.41,7.46,2.15.29,4.3.58,6.45.87,26.22,3.6,51.92,7.83,76.92,12.69,2.28.44,4.56.89,6.84,1.35,29.28,5.85,57.57,12.56,84.59,20.05-.56-5.05-1.11-10.11-1.67-15.16-21.8-5.55-44.42-10.6-67.71-15.1,20.54-14.16,40.85-29.73,60.87-47.03-.23-2.06-.45-4.11-.68-6.17-22.01,19.27-44.36,36.42-66.99,51.91-25.65-4.82-52.09-9-79.12-12.52-2.14-.28-4.28-.55-6.42-.82-22.79-2.87-46-5.27-69.49-7.21,31.83-28.53,63.14-60.55,93.69-97.8,36.29-4.24,69.35-8.9,99.1-14.28,2.45-.44,4.88-.89,7.29-1.35,4.29-.81,8.5-1.63,12.65-2.47-.68-6.15-1.35-12.3-2.03-18.46-1.02,1.31-2.04,2.62-3.06,3.92-31.17,7.03-65.54,12.94-102.34,18.18-2.15.31-4.31.61-6.47.91-27.25,3.79-55.77,7.24-85.24,10.51,8.24-11.06,16.43-22.52,24.56-34.41,31.54-5.51,62.27-11.46,92.12-18.03,2.17-.48,4.34-.95,6.49-1.44,23.84-5.34,47.11-11.1,69.78-17.36-.56-5.09-1.12-10.18-1.68-15.27-18.68,5.64-37.54,10.86-56.55,15.72,16.74-25.05,33.19-52.13,49.31-81.54-.28-2.52-.56-5.05-.83-7.57-17.93,33.02-36.27,63.12-54.97,90.75-31.16,7.82-62.7,14.71-94.41,20.95-2,.39-4,.78-6.01,1.17-27.4,5.32-54.92,10.16-82.42,14.65,20.48-33.44,40.58-69.74,60.19-109.77,36.89-16.49,73.11-35.54,108.46-58.01ZM705.06,211.79c19.34-2.97,38.64-6.22,57.87-9.78,4.82-.89,9.63-1.81,14.45-2.74,1.72-.33,3.43-.67,5.14-1.01,25.53-5.03,50.94-10.62,76.19-16.88-8.9,23.34-17.9,45.93-26.97,67.91-21.72,2.8-43.28,5.47-64.6,8.03-1.71.21-3.41.41-5.12.61-20.98,2.51-41.73,4.92-62.19,7.24,1.75-17.73,3.5-35.53,5.24-53.39ZM764.79,266.14c16.34-1.88,32.58-3.77,48.67-5.68,4.8-.57,9.59-1.14,14.36-1.72,1.75-.21,3.49-.42,5.24-.64,22.54-2.73,44.82-5.51,66.82-8.37-4.58,8.47-9.17,16.81-13.78,25.02-20.73,1.97-41.61,3.95-62.52,5.95-1.74.17-3.49.33-5.24.5-19.71,1.89-39.46,3.8-59.15,5.73,1.87-6.9,3.73-13.83,5.59-20.8ZM754.08,287.44c-19.09,1.88-38.13,3.78-57.03,5.71-1.69.17-3.37.34-5.05.52-18.83,1.92-37.51,3.87-55.98,5.83-.53-6.31-1.06-12.62-1.58-18.93,11.4-1.22,22.76-2.44,34.08-3.67,8.51-.93,16.98-1.86,25.44-2.79,1.69-.19,3.37-.37,5.05-.56,20.38-2.25,40.62-4.52,60.67-6.81-1.86,6.93-3.72,13.83-5.59,20.71ZM611.76,223.9c4.25-.45,8.49-.92,12.74-1.4,1.67-.19,3.35-.38,5.02-.57,23.54-2.72,47.05-5.83,70.49-9.37-1.74,17.8-3.48,35.53-5.24,53.2-9.8,1.11-19.54,2.19-29.21,3.26-10.7,1.18-21.3,2.33-31.81,3.46-1.68.18-3.36.36-5.03.54-20.73,2.21-41.08,4.33-60.99,6.35-4.57-16.66-9.15-33.37-13.73-50.12,19.26-1.51,38.51-3.28,57.75-5.33ZM504.37,294.02c20.26-2.02,40.44-4.07,60.52-6.14,1.68-.17,3.37-.35,5.05-.52,19.93-2.06,39.76-4.15,59.47-6.26.53,6.31,1.06,12.62,1.59,18.93-18.9,2.01-37.56,4.03-55.91,6.05-1.68.19-3.36.37-5.04.56-19.32,2.14-38.29,4.27-56.8,6.38-2.95-6.31-5.91-12.65-8.87-19.01ZM508.13,313.6c-8.72,1-17.34,1.99-25.85,2.98-11.04,1.28-22,2.56-32.86,3.84-1.73.2-3.47.41-5.2.61-20.99,2.48-41.61,4.94-61.77,7.36-5.83-7-11.66-14.12-17.51-21.37,12.42-1.06,25.07-2.18,37.92-3.34,9.48-.86,18.95-1.73,28.41-2.61,1.74-.16,3.49-.32,5.23-.49,20.99-1.97,41.91-4,62.75-6.07,2.96,6.39,5.92,12.75,8.88,19.08ZM471.45,233.94c1.73-.06,3.46-.12,5.19-.18,24.09-.91,48.21-2.31,72.32-4.13,4.59,16.79,9.17,33.54,13.74,50.24-21.24,2.14-41.96,4.17-62.08,6.07-1.71.16-3.41.32-5.12.48-22.23,2.09-43.73,4.03-64.38,5.8-11.92-18.58-23.9-37.65-35.93-57.32,25.37.28,50.8-.07,76.26-.96ZM207.28,218.97c28.94,4.98,60.32,8.98,93.82,11.7,1.9.15,3.8.31,5.71.45,12.5.96,25.29,1.74,38.35,2.35,14.85.69,29.72,1.12,44.62,1.34,12.09,19.86,24.11,39.11,36.09,57.85-7.8.67-15.48,1.31-23.02,1.92-15.33,1.25-30.36,2.43-45.07,3.52-1.81.13-3.61.27-5.41.4-25.56,1.88-50.12,3.5-73.55,4.85-23.63-25.71-47.47-53.64-71.55-84.39ZM203.2,318.54c24.62-1.3,51.06-2.96,79.09-4.97,1.87-.13,3.75-.27,5.64-.41,22.87-1.67,46.78-3.56,71.61-5.67,5.87,7.31,11.72,14.49,17.57,21.55-22.71,2.74-44.82,5.42-66.2,8.02-1.85.23-3.7.45-5.55.67-25.24,3.07-49.42,6.01-72.35,8.77-9.9-8.95-19.84-18.26-29.81-27.97ZM332.22,425.98c-1.85.5-3.69,1-5.52,1.51-19.77,5.43-38.87,11.02-57.21,16.68-36.33-21.52-72.9-46.44-109.87-76.45,24.09-3.25,50.38-6.84,78.53-10.67,1.93-.26,3.86-.53,5.8-.79,22.37-3.04,45.87-6.23,70.32-9.5,23.61,23.67,47.04,45.38,70.36,65.75-17.92,4.35-35.41,8.85-52.42,13.47ZM469.58,393.82c-8.58,1.7-17.09,3.44-25.53,5.22-1.74.37-3.47.74-5.2,1.11-16.59,3.55-32.89,7.25-48.86,11.07-23.26-20.23-46.63-41.76-70.16-65.2,20.82-2.78,42.31-5.63,64.35-8.49,1.78-.23,3.56-.46,5.34-.69,19.62-2.54,39.67-5.1,60.06-7.64,13.64,20.73,27.22,40.88,40.76,60.63-6.99,1.31-13.92,2.64-20.75,4ZM545.01,380.33c-1.69.27-3.37.54-5.05.82-15.15,2.46-30,5.05-44.53,7.73-13.51-19.66-27.06-39.72-40.67-60.33,9.25-1.15,18.57-2.3,27.96-3.44,9.77-1.19,19.48-2.36,29.15-3.51,1.71-.2,3.4-.41,5.1-.61,18.63-2.21,37.06-4.34,55.26-6.39,5.43,19.79,10.86,39.52,16.29,59.21-14.73,2.05-29.24,4.22-43.5,6.51ZM685.07,362.61c-14.6,1.36-29.07,2.86-43.39,4.49-1.67.19-3.35.38-5.02.58-14.55,1.69-28.94,3.51-43.13,5.45-5.42-19.65-10.84-39.35-16.26-59.09,18.37-2.06,36.5-4.04,54.4-5.94,1.68-.18,3.36-.36,5.03-.53,18.42-1.95,36.58-3.82,54.48-5.61-2.03,20.27-4.06,40.48-6.1,60.65ZM785.52,355.63c-13.74.63-27.43,1.39-41.06,2.27-1.63.11-3.25.21-4.88.32-1.71.12-3.42.23-5.13.35-14.87,1.04-29.66,2.23-44.32,3.56,2.04-20.18,4.07-40.4,6.09-60.69,3.29-.33,6.59-.65,9.86-.98,15.43-1.52,30.64-2.98,45.65-4.4,1.71-.16,3.42-.32,5.12-.48,19.57-1.83,38.77-3.58,57.58-5.25-9.58,22.26-19.22,43.96-28.92,65.29ZM844.49,353.78c-1.8.03-3.59.06-5.39.1-16.15.32-32.28.83-48.34,1.52,9.7-21.39,19.34-43.17,28.92-65.52,20.78-1.84,41.08-3.6,60.87-5.29,1.81-.16,3.61-.31,5.41-.46,6.64-.57,13.24-1.13,19.76-1.68,15.65-1.33,30.97-2.63,45.96-3.92-18.29,26.63-36.82,51.46-55.51,75.04-17.21-.15-34.45-.08-51.68.22ZM1118.93,262.58c-30.44,36.71-61.62,68.33-93.31,96.56-20.47-1.62-41.14-2.88-61.95-3.8-1.94-.08-3.87-.17-5.81-.25-18.63-.76-37.36-1.25-56.12-1.47,18.73-23.73,37.28-48.73,55.59-75.59,25.2-2.16,49.44-4.28,72.7-6.43,2-.18,4-.37,5.99-.56,29.24-2.72,56.89-5.51,82.92-8.48ZM1063.84,225.42c-8.12,11.75-16.3,23.08-24.53,34.03-24.33,2.67-49.29,5.22-74.66,7.72-1.88.19-3.76.37-5.64.56-22.23,2.19-44.77,4.34-67.49,6.51,4.61-8.27,9.21-16.67,13.79-25.21,24.5-3.21,48.64-6.52,72.41-9.99,1.9-.28,3.78-.56,5.67-.83,27.34-4.02,54.18-8.26,80.45-12.79ZM985.04,227.33c-24.78,4-49.53,7.73-74.18,11.25-1.81.26-3.61.51-5.41.77-22.95,3.25-45.8,6.33-68.47,9.27,9.1-22.18,18.12-44.99,27.05-68.57,27.76-7,55.33-14.82,82.63-23.65,1.86-.6,3.72-1.2,5.58-1.81,31.28-10.29,62.2-21.93,92.68-35.29-19.52,39.35-39.52,75.09-59.88,108.04Z"/>
      <path class="cls-2" d="M1159.36,58.63c2.19-1.39,4.38-2.78,6.56-4.2,18.07-11.74,35.92-24.39,53.5-38.09-.59-5.33-1.17-10.67-1.76-16-13.72,11.14-27.5,21.53-41.3,31.27-2.19,1.54-4.38,3.07-6.57,4.58-36.91,25.46-74.04,46.38-111.04,64.15-1.99.96-3.98,1.9-5.97,2.84-31.74,14.95-63.38,27.61-94.74,38.6-1.86.65-3.72,1.3-5.58,1.94-28.41,9.79-56.59,18.22-84.42,25.63-1.77.47-3.54.94-5.31,1.4-26.29,6.88-52.26,12.86-77.83,18.12-1.72.35-3.43.7-5.14,1.05-25.04,5.07-49.69,9.45-73.88,13.27-1.68.27-3.36.53-5.05.79-24.51,3.8-48.54,7.02-72.01,9.75-1.68.19-3.35.39-5.02.58-24.64,2.8-48.67,5.04-72.02,6.8-1.69.13-3.38.25-5.07.37-25.48,1.85-50.15,3.12-73.93,3.85-1.73.05-3.46.1-5.19.15-27.24.76-53.29.81-78.02.24-1.81-.04-3.6-.09-5.4-.14-12.66-.34-24.97-.85-36.92-1.5-16.49-.91-32.54-2.11-48.12-3.59-1.92-.18-3.83-.37-5.73-.56-34.64-3.47-66.9-8.34-96.41-14.22-2.1-.42-4.19-.84-6.26-1.27-45.84-9.44-84.83-21.37-115.57-32.79-2.45-.91-4.84-1.81-7.18-2.71-.72-.28-1.45-.56-2.16-.83-26.68-10.33-48.76-20.77-65.63-29.53.59,5.39,1.19,10.78,1.78,16.17,15.96,7.83,35.87,16.73,59.47,25.56,6.46,2.42,13.35,4.88,20.63,7.35,2.32.79,4.68,1.58,7.09,2.36,30.98,10.17,68.62,20.14,111.88,27.86,24.29,31.29,48.31,59.69,72.13,85.8-28.95,1.63-56.13,2.85-81.29,3.69-2,.07-4,.13-5.98.19-35.06,1.09-66.05,1.41-92.33,1.24-28.01-27.36-56.28-58.11-84.89-92.97.29,2.61.57,5.22.86,7.84,26.13,31.6,51.98,59.78,77.6,85.08-29.61-.28-52.77-1.17-68.46-1.95.56,5.07,1.12,10.14,1.67,15.21,18.18.47,45.55.83,80.7.23,2.11-.04,4.24-.08,6.4-.12,26.07-.51,56.17-1.55,89.75-3.27,10.02,9.85,20,19.29,29.96,28.36-29.19,3.51-56.26,6.72-80.82,9.56-2.07.24-4.12.48-6.15.71-37.55,4.32-68.9,7.71-92.55,10.13-8.18-6.74-16.37-13.74-24.59-21.03.26,2.32.51,4.65.77,6.97,5.75,5.05,11.49,9.96,17.22,14.74-5.67.57-10.81,1.09-15.42,1.54.56,5.05,1.11,10.09,1.67,15.14,8.27-1.01,18.22-2.25,29.69-3.71,2.14-.27,4.34-.55,6.59-.84,24.24-3.1,54.57-7.1,89.88-11.86,37.11,30.43,73.81,55.66,110.26,77.4-22.41,6.99-43.64,14.08-63.55,21.1-2.02.71-4.03,1.42-6.03,2.14-26.56,9.47-50.67,18.76-71.95,27.42-29.03-12.36-58.18-26.99-87.51-44.56.23,2.11.46,4.21.7,6.32,26.95,15.91,53.75,29.35,80.45,40.84-30.86,12.7-55.4,23.84-72.45,31.83.55,5.04,1.11,10.08,1.66,15.12.08-.04.15-.07.23-.11,2.14-1.06,4.4-2.17,6.78-3.34,19.39-9.47,46.63-22.29,80.47-36.56,2.1-.89,4.23-1.78,6.38-2.67,20.93-8.72,44.23-17.93,69.62-27.21,2-.73,4.01-1.46,6.03-2.19,19.36-7,39.88-14.03,61.44-20.93,1.91-.61,3.83-1.22,5.75-1.83,17.77-5.62,36.22-11.16,55.27-16.53,1.84-.52,3.68-1.03,5.52-1.55,16.46-4.58,33.35-9.04,50.63-13.33,1.78-.44,3.56-.88,5.34-1.32,15.44-3.79,31.17-7.44,47.18-10.93,1.73-.38,3.47-.75,5.2-1.13,6.62-1.43,13.29-2.83,20-4.2,8.11-1.66,16.34-3.29,24.67-4.88,1.7-.32,3.4-.65,5.11-.97,14.03-2.64,28.37-5.18,42.98-7.59,1.68-.28,3.36-.55,5.05-.83,13.77-2.24,27.78-4.36,41.98-6.36,1.67-.23,3.34-.47,5.02-.7,13.7-1.89,27.59-3.66,41.62-5.29,1.67-.19,3.35-.39,5.02-.58,13.83-1.57,27.8-3.02,41.89-4.32,1.68-.16,3.37-.31,5.06-.46,14.16-1.27,28.43-2.4,42.79-3.38,1.71-.12,3.42-.23,5.13-.34,14.71-.96,29.51-1.77,44.36-2.4,1.75-.07,3.5-.15,5.24-.22,15.52-.62,31.11-1.06,46.71-1.31,1.8-.03,3.6-.05,5.39-.08,16.64-.22,33.31-.21,49.96.01,1.86.02,3.72.05,5.58.08,18.14.3,36.26.87,54.3,1.72,1.94.09,3.88.18,5.82.28,20.13,1.01,40.16,2.36,60,4.05,2.04.17,4.07.35,6.11.53,22.76,2.03,45.26,4.52,67.41,7.46,2.15.29,4.3.58,6.45.87,26.22,3.6,51.92,7.83,76.92,12.69,2.28.44,4.56.89,6.84,1.35,29.28,5.85,57.57,12.56,84.59,20.05-.56-5.05-1.11-10.11-1.67-15.16-21.8-5.55-44.42-10.6-67.71-15.1,20.54-14.16,40.85-29.73,60.87-47.03-.23-2.06-.45-4.11-.68-6.17-22.01,19.27-44.36,36.42-66.99,51.91-25.65-4.82-52.09-9-79.12-12.52-2.14-.28-4.28-.55-6.42-.82-22.79-2.87-46-5.27-69.49-7.21,31.83-28.53,63.14-60.55,93.69-97.8,36.29-4.24,69.35-8.9,99.1-14.28,2.45-.44,4.88-.89,7.29-1.35,4.29-.81,8.5-1.63,12.65-2.47-.68-6.15-1.35-12.3-2.03-18.46-1.02,1.31-2.04,2.62-3.06,3.92-31.17,7.03-65.54,12.94-102.34,18.18-2.15.31-4.31.61-6.47.91-27.25,3.79-55.77,7.24-85.24,10.51,8.24-11.06,16.43-22.52,24.56-34.41,31.54-5.51,62.27-11.46,92.12-18.03,2.17-.48,4.34-.95,6.49-1.44,23.84-5.34,47.11-11.1,69.78-17.36-.56-5.09-1.12-10.18-1.68-15.27-18.68,5.64-37.54,10.86-56.55,15.72,16.74-25.05,33.19-52.13,49.31-81.54-.28-2.52-.56-5.05-.83-7.57-17.93,33.02-36.27,63.12-54.97,90.75-31.16,7.82-62.7,14.71-94.41,20.95-2,.39-4,.78-6.01,1.17-27.4,5.32-54.92,10.16-82.42,14.65,20.48-33.44,40.58-69.74,60.19-109.77,36.89-16.49,73.11-35.54,108.46-58.01ZM705.06,211.79c19.34-2.97,38.64-6.22,57.87-9.78,4.82-.89,9.63-1.81,14.45-2.74,1.72-.33,3.43-.67,5.14-1.01,25.53-5.03,50.94-10.62,76.19-16.88-8.9,23.34-17.9,45.93-26.97,67.91-21.72,2.8-43.28,5.47-64.6,8.03-1.71.21-3.41.41-5.12.61-20.98,2.51-41.73,4.92-62.19,7.24,1.75-17.73,3.5-35.53,5.24-53.39ZM764.79,266.14c16.34-1.88,32.58-3.77,48.67-5.68,4.8-.57,9.59-1.14,14.36-1.72,1.75-.21,3.49-.42,5.24-.64,22.54-2.73,44.82-5.51,66.82-8.37-4.58,8.47-9.17,16.81-13.78,25.02-20.73,1.97-41.61,3.95-62.52,5.95-1.74.17-3.49.33-5.24.5-19.71,1.89-39.46,3.8-59.15,5.73,1.87-6.9,3.73-13.83,5.59-20.8ZM754.08,287.44c-19.09,1.88-38.13,3.78-57.03,5.71-1.69.17-3.37.34-5.05.52-18.83,1.92-37.51,3.87-55.98,5.83-.53-6.31-1.06-12.62-1.58-18.93,11.4-1.22,22.76-2.44,34.08-3.67,8.51-.93,16.98-1.86,25.44-2.79,1.69-.19,3.37-.37,5.05-.56,20.38-2.25,40.62-4.52,60.67-6.81-1.86,6.93-3.72,13.83-5.59,20.71ZM611.76,223.9c4.25-.45,8.49-.92,12.74-1.4,1.67-.19,3.35-.38,5.02-.57,23.54-2.72,47.05-5.83,70.49-9.37-1.74,17.8-3.48,35.53-5.24,53.2-9.8,1.11-19.54,2.19-29.21,3.26-10.7,1.18-21.3,2.33-31.81,3.46-1.68.18-3.36.36-5.03.54-20.73,2.21-41.08,4.33-60.99,6.35-4.57-16.66-9.15-33.37-13.73-50.12,19.26-1.51,38.51-3.28,57.75-5.33ZM504.37,294.02c20.26-2.02,40.44-4.07,60.52-6.14,1.68-.17,3.37-.35,5.05-.52,19.93-2.06,39.76-4.15,59.47-6.26.53,6.31,1.06,12.62,1.59,18.93-18.9,2.01-37.56,4.03-55.91,6.05-1.68.19-3.36.37-5.04.56-19.32,2.14-38.29,4.27-56.8,6.38-2.95-6.31-5.91-12.65-8.87-19.01ZM508.13,313.6c-8.72,1-17.34,1.99-25.85,2.98-11.04,1.28-22,2.56-32.86,3.84-1.73.2-3.47.41-5.2.61-20.99,2.48-41.61,4.94-61.77,7.36-5.83-7-11.66-14.12-17.51-21.37,12.42-1.06,25.07-2.18,37.92-3.34,9.48-.86,18.95-1.73,28.41-2.61,1.74-.16,3.49-.32,5.23-.49,20.99-1.97,41.91-4,62.75-6.07,2.96,6.39,5.92,12.75,8.88,19.08ZM471.45,233.94c1.73-.06,3.46-.12,5.19-.18,24.09-.91,48.21-2.31,72.32-4.13,4.59,16.79,9.17,33.54,13.74,50.24-21.24,2.14-41.96,4.17-62.08,6.07-1.71.16-3.41.32-5.12.48-22.23,2.09-43.73,4.03-64.38,5.8-11.92-18.58-23.9-37.65-35.93-57.32,25.37.28,50.8-.07,76.26-.96ZM207.28,218.97c28.94,4.98,60.32,8.98,93.82,11.7,1.9.15,3.8.31,5.71.45,12.5.96,25.29,1.74,38.35,2.35,14.85.69,29.72,1.12,44.62,1.34,12.09,19.86,24.11,39.11,36.09,57.85-7.8.67-15.48,1.31-23.02,1.92-15.33,1.25-30.36,2.43-45.07,3.52-1.81.13-3.61.27-5.41.4-25.56,1.88-50.12,3.5-73.55,4.85-23.63-25.71-47.47-53.64-71.55-84.39ZM203.2,318.54c24.62-1.3,51.06-2.96,79.09-4.97,1.87-.13,3.75-.27,5.64-.41,22.87-1.67,46.78-3.56,71.61-5.67,5.87,7.31,11.72,14.49,17.57,21.55-22.71,2.74-44.82,5.42-66.2,8.02-1.85.23-3.7.45-5.55.67-25.24,3.07-49.42,6.01-72.35,8.77-9.9-8.95-19.84-18.26-29.81-27.97ZM332.22,425.98c-1.85.5-3.69,1-5.52,1.51-19.77,5.43-38.87,11.02-57.21,16.68-36.33-21.52-72.9-46.44-109.87-76.45,24.09-3.25,50.38-6.84,78.53-10.67,1.93-.26,3.86-.53,5.8-.79,22.37-3.04,45.87-6.23,70.32-9.5,23.61,23.67,47.04,45.38,70.36,65.75-17.92,4.35-35.41,8.85-52.42,13.47ZM469.58,393.82c-8.58,1.7-17.09,3.44-25.53,5.22-1.74.37-3.47.74-5.2,1.11-16.59,3.55-32.89,7.25-48.86,11.07-23.26-20.23-46.63-41.76-70.16-65.2,20.82-2.78,42.31-5.63,64.35-8.49,1.78-.23,3.56-.46,5.34-.69,19.62-2.54,39.67-5.1,60.06-7.64,13.64,20.73,27.22,40.88,40.76,60.63-6.99,1.31-13.92,2.64-20.75,4ZM545.01,380.33c-1.69.27-3.37.54-5.05.82-15.15,2.46-30,5.05-44.53,7.73-13.51-19.66-27.06-39.72-40.67-60.33,9.25-1.15,18.57-2.3,27.96-3.44,9.77-1.19,19.48-2.36,29.15-3.51,1.71-.2,3.4-.41,5.1-.61,18.63-2.21,37.06-4.34,55.26-6.39,5.43,19.79,10.86,39.52,16.29,59.21-14.73,2.05-29.24,4.22-43.5,6.51ZM685.07,362.61c-14.6,1.36-29.07,2.86-43.39,4.49-1.67.19-3.35.38-5.02.58-14.55,1.69-28.94,3.51-43.13,5.45-5.42-19.65-10.84-39.35-16.26-59.09,18.37-2.06,36.5-4.04,54.4-5.94,1.68-.18,3.36-.36,5.03-.53,18.42-1.95,36.58-3.82,54.48-5.61-2.03,20.27-4.06,40.48-6.1,60.65ZM785.52,355.63c-13.74.63-27.43,1.39-41.06,2.27-1.63.11-3.25.21-4.88.32-1.71.12-3.42.23-5.13.35-14.87,1.04-29.66,2.23-44.32,3.56,2.04-20.18,4.07-40.4,6.09-60.69,3.29-.33,6.59-.65,9.86-.98,15.43-1.52,30.64-2.98,45.65-4.4,1.71-.16,3.42-.32,5.12-.48,19.57-1.83,38.77-3.58,57.58-5.25-9.58,22.26-19.22,43.96-28.92,65.29ZM844.49,353.78c-1.8.03-3.59.06-5.39.1-16.15.32-32.28.83-48.34,1.52,9.7-21.39,19.34-43.17,28.92-65.52,20.78-1.84,41.08-3.6,60.87-5.29,1.81-.16,3.61-.31,5.41-.46,6.64-.57,13.24-1.13,19.76-1.68,15.65-1.33,30.97-2.63,45.96-3.92-18.29,26.63-36.82,51.46-55.51,75.04-17.21-.15-34.45-.08-51.68.22ZM1118.93,262.58c-30.44,36.71-61.62,68.33-93.31,96.56-20.47-1.62-41.14-2.88-61.95-3.8-1.94-.08-3.87-.17-5.81-.25-18.63-.76-37.36-1.25-56.12-1.47,18.73-23.73,37.28-48.73,55.59-75.59,25.2-2.16,49.44-4.28,72.7-6.43,2-.18,4-.37,5.99-.56,29.24-2.72,56.89-5.51,82.92-8.48ZM1063.84,225.42c-8.12,11.75-16.3,23.08-24.53,34.03-24.33,2.67-49.29,5.22-74.66,7.72-1.88.19-3.76.37-5.64.56-22.23,2.19-44.77,4.34-67.49,6.51,4.61-8.27,9.21-16.67,13.79-25.21,24.5-3.21,48.64-6.52,72.41-9.99,1.9-.28,3.78-.56,5.67-.83,27.34-4.02,54.18-8.26,80.45-12.79ZM985.04,227.33c-24.78,4-49.53,7.73-74.18,11.25-1.81.26-3.61.51-5.41.77-22.95,3.25-45.8,6.33-68.47,9.27,9.1-22.18,18.12-44.99,27.05-68.57,27.76-7,55.33-14.82,82.63-23.65,1.86-.6,3.72-1.2,5.58-1.81,31.28-10.29,62.2-21.93,92.68-35.29-19.52,39.35-39.52,75.09-59.88,108.04Z"/>
    </g>
  </g>
</svg>