<?xml version="1.0" encoding="UTF-8"?>
<svg id="Capa_2" data-name="Capa 2" xmlns="http://www.w3.org/2000/svg" viewBox="0 0 1263.12 546.43">
  <defs>
    <style>
      .cls-1 {
        fill: none;
        stroke: #000;
        stroke-miterlimit: 10;
        stroke-width: .35px;
      }

      .cls-2 {
        opacity: .41;
      }
    </style>
  </defs>
  <g id="Capa_1-2" data-name="Capa 1">
    <g class="cls-2">
      <path class="cls-1" d="M1159.36,58.63c2.19-1.39,4.38-2.78,6.56-4.2,18.07-11.74,35.92-24.39,53.5-38.09-.59-5.33-1.17-10.67-1.76-16-13.72,11.14-27.5,21.53-41.3,31.27-2.19,1.54-4.38,3.07-6.57,4.58-36.91,25.46-74.04,46.38-111.04,64.15-1.99.96-3.98,1.9-5.97,2.84-31.74,14.95-63.38,27.61-94.74,38.6-1.86.65-3.72,1.3-5.58,1.94-28.41,9.79-56.59,18.22-84.42,25.62-1.77.47-3.54.94-5.31,1.4-26.29,6.88-52.26,12.86-77.83,18.12-1.72.35-3.43.7-5.14,1.05-25.04,5.06-49.69,9.45-73.88,13.27-1.68.27-3.36.53-5.05.79-24.51,3.8-48.54,7.02-72.01,9.75-1.68.19-3.35.39-5.02.57-24.64,2.8-48.67,5.04-72.02,6.8-1.69.13-3.38.25-5.07.38-25.49,1.85-50.15,3.12-73.93,3.85-1.73.05-3.46.1-5.19.15-27.24.76-53.29.81-78.02.24-1.81-.04-3.61-.09-5.4-.14-12.66-.34-24.97-.85-36.92-1.5-16.49-.91-32.54-2.11-48.12-3.59-1.92-.18-3.83-.37-5.73-.56-34.64-3.47-66.9-8.34-96.41-14.22-2.1-.42-4.19-.84-6.26-1.27-45.84-9.44-84.83-21.37-115.57-32.79-2.45-.91-4.84-1.81-7.18-2.71-.72-.28-1.45-.55-2.16-.83-26.68-10.33-48.76-20.78-65.63-29.53.59,5.39,1.19,10.78,1.78,16.17,15.96,7.83,35.87,16.73,59.47,25.56,6.46,2.42,13.35,4.88,20.63,7.35,2.32.79,4.68,1.57,7.09,2.36,30.98,10.17,68.62,20.14,111.88,27.86,24.29,31.29,48.31,59.69,72.13,85.8-28.95,1.63-56.13,2.85-81.28,3.69-2,.07-4,.13-5.98.19-35.06,1.09-66.05,1.41-92.33,1.24-28.01-27.35-56.28-58.11-84.89-92.97.29,2.61.57,5.22.86,7.83,26.13,31.6,51.98,59.78,77.6,85.08-29.61-.28-52.78-1.17-68.46-1.95.56,5.07,1.12,10.14,1.67,15.21,18.18.47,45.55.83,80.7.23,2.1-.04,4.24-.08,6.4-.12,26.07-.51,56.17-1.55,89.75-3.27,10.02,9.85,20.01,19.29,29.96,28.36-29.18,3.51-56.26,6.72-80.82,9.55-2.07.24-4.12.48-6.15.71-37.56,4.32-68.9,7.71-92.55,10.13-8.18-6.74-16.37-13.74-24.59-21.03.26,2.32.51,4.65.77,6.97,5.75,5.05,11.49,9.96,17.22,14.74-5.67.57-10.81,1.09-15.42,1.54.56,5.05,1.11,10.09,1.67,15.14,8.28-1.01,18.22-2.25,29.69-3.71,2.14-.27,4.34-.55,6.59-.84,24.23-3.1,54.57-7.1,89.88-11.86,37.11,30.43,73.81,55.66,110.26,77.4-22.41,6.99-43.64,14.08-63.55,21.1-2.02.71-4.03,1.42-6.03,2.14-26.56,9.47-50.67,18.76-71.95,27.42-29.03-12.36-58.18-26.99-87.51-44.56.23,2.11.46,4.21.7,6.32,26.95,15.91,53.75,29.34,80.45,40.84-30.86,12.7-55.4,23.84-72.45,31.83.55,5.04,1.11,10.08,1.66,15.12.08-.04.15-.08.23-.11,2.14-1.06,4.4-2.17,6.78-3.34,19.39-9.47,46.63-22.29,80.47-36.56,2.1-.89,4.23-1.78,6.38-2.67,20.93-8.72,44.23-17.93,69.62-27.21,2-.73,4.01-1.46,6.03-2.19,19.36-7,39.88-14.03,61.44-20.93,1.91-.61,3.83-1.22,5.75-1.83,17.77-5.62,36.22-11.16,55.27-16.53,1.84-.52,3.68-1.03,5.52-1.55,16.46-4.58,33.35-9.04,50.63-13.33,1.78-.44,3.56-.88,5.34-1.32,15.44-3.79,31.17-7.44,47.18-10.93,1.73-.38,3.47-.75,5.2-1.13,6.62-1.43,13.29-2.83,20-4.2,8.11-1.66,16.34-3.28,24.67-4.88,1.7-.32,3.4-.65,5.11-.97,14.03-2.64,28.37-5.18,42.98-7.59,1.68-.28,3.36-.55,5.05-.83,13.77-2.24,27.77-4.36,41.98-6.36,1.67-.23,3.34-.47,5.02-.7,13.7-1.89,27.59-3.66,41.62-5.29,1.67-.19,3.35-.39,5.02-.58,13.83-1.57,27.79-3.02,41.89-4.32,1.68-.16,3.37-.31,5.06-.46,14.16-1.27,28.43-2.4,42.79-3.38,1.71-.12,3.42-.23,5.13-.34,14.71-.96,29.51-1.77,44.36-2.4,1.75-.07,3.5-.15,5.24-.22,15.52-.62,31.11-1.06,46.71-1.31,1.8-.03,3.6-.05,5.39-.08,16.64-.22,33.31-.21,49.96.01,1.86.02,3.72.05,5.59.09,18.14.3,36.26.87,54.3,1.72,1.94.09,3.88.18,5.82.28,20.13,1.01,40.16,2.36,60,4.06,2.04.17,4.08.35,6.11.53,22.76,2.03,45.26,4.52,67.41,7.46,2.15.29,4.3.58,6.45.87,26.22,3.6,51.92,7.83,76.92,12.69,2.28.44,4.56.89,6.84,1.35,29.28,5.85,57.57,12.56,84.59,20.05-.56-5.05-1.11-10.11-1.67-15.16-21.8-5.55-44.42-10.6-67.71-15.1,20.54-14.16,40.85-29.73,60.87-47.03-.23-2.06-.45-4.11-.68-6.17-22.01,19.26-44.36,36.42-66.99,51.9-25.65-4.82-52.09-9-79.12-12.52-2.14-.28-4.28-.55-6.42-.82-22.8-2.87-46-5.27-69.49-7.21,31.83-28.53,63.14-60.55,93.69-97.8,36.29-4.24,69.35-8.9,99.1-14.28,2.45-.44,4.88-.89,7.29-1.34,4.29-.81,8.5-1.63,12.65-2.47l-2.03-18.46c-1.02,1.31-2.04,2.62-3.06,3.92-31.17,7.03-65.55,12.94-102.34,18.18-2.15.31-4.31.61-6.47.91-27.25,3.79-55.77,7.24-85.24,10.51,8.24-11.06,16.43-22.52,24.57-34.41,31.54-5.51,62.27-11.46,92.12-18.03,2.17-.48,4.34-.96,6.49-1.44,23.84-5.34,47.11-11.1,69.78-17.35-.56-5.09-1.12-10.18-1.68-15.27-18.68,5.64-37.54,10.86-56.55,15.72,16.74-25.06,33.19-52.13,49.31-81.54-.28-2.52-.56-5.05-.83-7.57-17.93,33.02-36.27,63.12-54.97,90.75-31.16,7.82-62.7,14.71-94.41,20.95-2,.39-4,.78-6.01,1.17-27.4,5.32-54.92,10.16-82.42,14.65,20.48-33.44,40.58-69.74,60.19-109.77,36.89-16.49,73.11-35.54,108.46-58.01Z"/>
    </g>
  </g>
</svg>