<?xml version="1.0" encoding="UTF-8"?>
<svg id="Capa_2" data-name="Capa 2" xmlns="http://www.w3.org/2000/svg" viewBox="0 0 95 95">
  <defs>
    <style>
      .cls-1 {
        fill: #001689;
      }

      .cls-2 {
        fill: #fdc203;
      }
    </style>
  </defs>
  <g id="Layer_2" data-name="Layer 2">
    <g>
      <path class="cls-2" d="M47.5,0C21.3,0,0,21.3,0,47.5s21.3,47.5,47.5,47.5,47.5-21.3,47.5-47.5S73.7,0,47.5,0Z"/>
      <path class="cls-1" d="M65.2,56.9c2.3,2.3,2.3,6,0,8.3-1.1,1.1-2.6,1.7-4.1,1.7s-3-.6-4.1-1.7l-9.5-9.4-9.4,9.4c-1.1,1.1-2.6,1.7-4.1,1.7s-3-.6-4.1-1.7c-2.3-2.3-2.3-6,0-8.3l9.4-9.4-9.4-9.4c-2.3-2.3-2.3-6,0-8.3s6-2.3,8.3,0l9.4,9.4,9.4-9.4c2.3-2.3,6-2.3,8.3,0,2.3,2.3,2.3,6,0,8.3l-9.5,9.4,9.4,9.4Z"/>
    </g>
  </g>
</svg>