<?xml version="1.0" encoding="UTF-8"?>
<svg id="Capa_2" data-name="Capa 2" xmlns="http://www.w3.org/2000/svg" viewBox="0 0 30.66 23.41">
  <defs>
    <style>
      .cls-1 {
        fill: #001689;
      }
    </style>
  </defs>
  <g id="Layer_3" data-name="Layer 3">
    <path class="cls-1" d="M29.46,13.83c.66,0,1.2-.54,1.2-1.2v-7.84c0-2.64-2.15-4.79-4.79-4.79H4.79C2.15,0,0,2.15,0,4.79v13.83c0,2.64,2.15,4.79,4.79,4.79h21.08c2.64,0,4.79-2.15,4.79-4.79,0-.66-.54-1.2-1.2-1.2s-1.2.54-1.2,1.2c0,1.32-1.07,2.4-2.4,2.4H4.79c-1.32,0-2.4-1.07-2.4-2.4V5.04l10.4,6.47c.78.49,1.65.73,2.53.73s1.75-.24,2.53-.73l10.4-6.47v7.59c0,.66.54,1.2,1.2,1.2ZM16.59,9.48c-.78.49-1.75.49-2.53,0L3.39,2.84c.39-.28.88-.45,1.4-.45h21.08c.52,0,1,.17,1.4.45l-10.67,6.63Z"/>
  </g>
</svg>