<?xml version="1.0" encoding="UTF-8"?>
<svg id="Capa_2" data-name="Capa 2" xmlns="http://www.w3.org/2000/svg" viewBox="0 0 30.7 30.69">
  <defs>
    <style>
      .cls-1 {
        fill: #fff;
      }
    </style>
  </defs>
  <g id="Capa_1-2" data-name="Capa 1">
    <g>
      <path class="cls-1" d="M21.96,30.69h-13.22c-4.82,0-8.74-3.92-8.74-8.74v-13.22C0,3.92,3.92,0,8.74,0h13.22c4.82,0,8.74,3.92,8.74,8.74v13.22c0,4.82-3.92,8.74-8.74,8.74M8.74,2.63c-3.37,0-6.11,2.74-6.11,6.11v13.22c0,3.37,2.74,6.11,6.11,6.11h13.22c3.37,0,6.11-2.74,6.11-6.11v-13.22c0-3.37-2.74-6.11-6.11-6.11h-13.22Z"/>
      <path class="cls-1" d="M15.35,23.21c-4.33,0-7.86-3.53-7.86-7.86s3.53-7.86,7.86-7.86,7.86,3.53,7.86,7.86-3.53,7.86-7.86,7.86M15.35,10.12c-2.88,0-5.23,2.35-5.23,5.23s2.35,5.23,5.23,5.23,5.23-2.35,5.23-5.23-2.35-5.23-5.23-5.23"/>
      <path class="cls-1" d="M25.43,7.04c0,1.04-.85,1.89-1.89,1.89s-1.89-.85-1.89-1.89.85-1.89,1.89-1.89,1.89.85,1.89,1.89"/>
    </g>
  </g>
</svg>