<?xml version="1.0" encoding="UTF-8"?>
<svg id="Capa_2" data-name="Capa 2" xmlns="http://www.w3.org/2000/svg" viewBox="0 0 142.5 200.71">
  <defs>
    <style>
      .cls-1 {
        fill: #9c8c6d;
      }

      .cls-2 {
        fill: #fff;
      }

      .cls-3 {
        fill: #000c93;
      }
    </style>
  </defs>
  <g id="Layer_2" data-name="Layer 2">
    <g>
      <rect class="cls-2" y="0" width="142.5" height="200.71"/>
      <g>
        <g>
          <polygon class="cls-3" points="49.66 84.83 32.92 84.83 32.92 88.2 39.68 88.2 39.68 104.11 42.89 104.11 42.89 88.2 49.66 88.2 49.66 84.83"/>
          <rect class="cls-3" x="106.37" y="84.9" width="3.21" height="19.21"/>
          <path class="cls-3" d="M63.85,104.18c-5.24,0-9.51-4.46-9.51-9.95s4.26-9.95,9.51-9.95,9.51,4.46,9.51,9.95-4.27,9.95-9.51,9.95M63.85,87.64c-3.47,0-6.29,2.95-6.29,6.59s2.82,6.59,6.29,6.59,6.3-2.96,6.3-6.59-2.82-6.59-6.3-6.59"/>
          <polygon class="cls-3" points="83.94 103.76 83.94 90.29 93.62 103.76 97.33 103.76 97.33 85.54 94.12 85.54 94.12 98.86 84.55 85.54 80.73 85.54 80.73 103.76 83.94 103.76"/>
          <g>
            <path class="cls-3" d="M81.89,37.11l5.51,1.7c.15.05.29-.09.25-.24-1.18-4.65-4.6-2.82-5.85-1.97-.2.14-.15.44.08.51Z"/>
            <path class="cls-3" d="M91.92,74.7c-.31-.59-1.02-.84-1.64-.59l-.86.36c-.45.19-.97,0-1.19-.43l-9.68-18.55c-.1-.18-.01-.41.18-.49l.4-.17c.2-.08.42.03.48.23,1,3.42,2.88,2.24,3.68,1.53.24-.21.37-.53.36-.86l-.43-10.37c0-.07-.03-.13-.09-.17l-.85-.69.46-.67-.05.07,2.38.93c.44.11.89-.19.94-.64l.65-2.04.57.11c.12.02.23-.09.22-.21l-.24-2.29c-.05-.2-.21-.35-.4-.41l-5.21-1.57c-.38-.12-.79.04-.99.38l-1.66,2.84c-.13.22-.45.19-.54-.04l-.17-.41,2.57-4.98c.14-.26.06-.58-.18-.75l-4.56-3.19c-.33-.23-.78-.02-.83.37l-.28,2.41-10.84,17.08c-.17.26-.1.6.15.79l3.12,2.27c.59.43.75,1.24.37,1.86l-11.36,18.74c.13-.18,5.07,3.79,5.07,3.79l1.37-1.89c.21-.28.17-.68-.1-.92l-1.19-1.07c-.22-.2-.26-.54-.08-.78l.31-.43,1.59.49c.53.17,1.11-.03,1.43-.48l7.46-10.42c.5-.7,1.55-.69,2.04.03l7.61,11.27c.37.55,1.08.75,1.68.47l.86-.4,2.44,4.3,5.76-3.02-.73-1.38Z"/>
          </g>
          <path class="cls-3" d="M91.6,62.7c-2.71,0-4.92,2.21-4.92,4.92s2.21,4.92,4.92,4.92,4.92-2.21,4.92-4.92-2.21-4.92-4.92-4.92ZM87.27,65.76v-.03s.25.16.25.16l.15,2.22h0c-.04.08-.1.18-.17.29-.11.18-.25.41-.34.62l-.03.07-.02-.07c-.09-.3-.16-.61-.19-.92-.02-.16-.02-.31-.02-.47,0-.29.03-.57.08-.85.06-.35.17-.69.31-1.01ZM91.92,71.25l-1.97-.63h0c-.04-.12-.38-1.07-.44-1.68v-.04s1.3-1.31,1.3-1.31l2.28.73.35,1.64-1.51,1.29ZM89.12,64.69h.01s1.45.56,1.45.56l.09,2.14-1.31,1.32-1.5-.76-.14-2.08h0c.2-.25.6-.57.85-.77.18-.15.39-.31.55-.42ZM95.75,66.5v.03s-1.27-.34-1.27-.34l-1.42-1.85.08-.78h.03c.25.03.93.12,1.04.16h0s0,0,0,0c.29.22.7.56.91.79.28.32.6.83.77,1.16h0s0,.01,0,.01c0,.12-.11.71-.14.82ZM91.65,62.89h0c.11.04.19.09.29.13.07.03.13.07.22.1.27.12.5.24.65.31.03.01.05.03.07.04h.04s-.08.78-.08.78l-2.11.79-1.49-.59v-.02c.04-.23.2-.59.33-.88l-.05-.02h0l.05.02c.04-.08.07-.16.1-.23h0s.01-.01.01-.01c.32-.14.65-.25.99-.32.28-.06.64-.09.97-.09h0ZM88.56,71.23l-.05-.04h.06c.23-.05.64-.15,1.24-.37h0s2.06.66,2.06.66h0s.06.1.09.15h0c.11.18.26.43.41.61l.03.04h-.05c-.25.05-.51.07-.76.07-.41,0-.82-.05-1.22-.16-.48-.13-.93-.33-1.34-.59-.17-.11-.34-.23-.5-.37ZM94.99,70.17l-1.34-.27-.36-1.65,1.22-1.8,1.21.33.02.09c.02.09.06.22.09.36.03.13.06.25.08.36.07.31.11.56.12.74h0s-1.05,1.84-1.05,1.84ZM96.23,68.57c-.09.42-.23.83-.43,1.21-.18.34-.37.63-.61.9l-.06.07s-.03.03-.04.04v-.38s1.1-1.88,1.1-1.88l.04.04Z"/>
        </g>
        <g>
          <g>
            <path class="cls-3" d="M22.12,149.11c-5.89,0-10.67-2.93-10.67-10.02s4.78-10.02,10.67-10.02c5.33,0,9.76,2.49,10.29,8.12h-7.1c-.51-1.63-1.75-2.18-3.19-2.18-1.91,0-3.45.95-3.45,4.09s1.54,4.09,3.45,4.09c1.55,0,2.85-.63,3.29-2.55l7.07,1.37c-1.15,5-5.35,7.12-10.35,7.12h0Z"/>
            <path class="cls-2" d="M22.12,129.27c5.75,0,9.49,2.87,10.06,7.69h-6.71c-.51-1.45-1.64-2.18-3.34-2.18s-3.66.75-3.66,4.3,1.99,4.3,3.66,4.3c1.84,0,3-.85,3.45-2.51l6.65,1.29c-.66,2.61-2.85,6.74-10.1,6.74-6.64,0-10.45-3.58-10.45-9.81s3.81-9.81,10.45-9.81M22.12,129.06c-5.89,0-10.67,2.93-10.67,10.02s4.78,10.02,10.67,10.02c5.01,0,9.21-2.12,10.35-7.12l-7.07-1.37c-.44,1.92-1.74,2.55-3.29,2.55-1.91,0-3.45-.95-3.45-4.09s1.54-4.09,3.45-4.09c1.44,0,2.68.55,3.19,2.18h7.1c-.53-5.63-4.97-8.12-10.29-8.12h0Z"/>
          </g>
          <g>
            <path class="cls-3" d="M44.7,146.3h-4.29l-.5,2.49h-7.22l3.91-19.42h11.9l3.91,19.42h-7.22l-.5-2.49ZM43.81,141.92l-1.26-6.26-1.26,6.26h2.52Z"/>
            <path class="cls-2" d="M48.33,129.59l3.82,18.99h-6.78l-.47-2.32-.03-.17h-4.63l-.03.17-.47,2.32h-6.78l3.82-18.99h11.56M41.03,142.13h3.04l-.05-.25-1.26-6.26-.21-1.04-.21,1.04-1.26,6.26-.05.25M48.51,129.38h-11.9l-3.91,19.42h7.22l.5-2.49h4.29l.5,2.49h7.22l-3.91-19.42h0ZM41.29,141.92l1.26-6.26,1.26,6.26h-2.52Z"/>
          </g>
          <g>
            <path class="cls-3" d="M60.89,148.79h-7.22v-19.42h7.55l4.25,8.65,4.25-8.65h7.47v19.42h-7.22v-9.75l-2.46,5.01h-4.07l-2.55-5.19v9.93Z"/>
            <path class="cls-2" d="M76.98,129.59v18.99h-6.79v-10.46l-.4.82-2.41,4.89h-3.81l-2.49-5.07-.4-.82v10.63h-6.79v-18.99h7.21l4.19,8.53.19.39.19-.39,4.19-8.53h7.12M77.19,129.38h-7.47l-4.25,8.65-4.25-8.65h-7.55v19.42h7.22v-9.93l2.55,5.19h4.07l2.46-5.01v9.75h7.22v-19.42h0Z"/>
          </g>
          <g>
            <path class="cls-3" d="M79.49,148.79v-19.42h7.22v19.42h-7.22Z"/>
            <path class="cls-2" d="M86.49,129.59v18.99h-6.79v-18.99h6.79M86.7,129.38h-7.22v19.42h7.22v-19.42h0Z"/>
          </g>
          <g>
            <path class="cls-3" d="M96.21,148.79h-7.22v-19.42h7.31l4.6,9.39v-9.39h7.22v19.42h-7.31l-4.6-9.39v9.39Z"/>
            <path class="cls-2" d="M107.9,129.59v18.99h-6.96l-4.54-9.27-.4-.83v10.1h-6.79v-18.99h6.96l4.54,9.27.4.83v-10.1h6.79M108.11,129.38h-7.22v9.39l-4.6-9.39h-7.31v19.42h7.22v-9.39l4.6,9.39h7.31v-19.42h0Z"/>
          </g>
          <g>
            <path class="cls-3" d="M109.72,139.08c0-7.09,4.78-10.02,10.67-10.02s10.67,2.93,10.67,10.02-4.78,10.02-10.67,10.02-10.67-2.93-10.67-10.02ZM116.94,139.08c0,3.14,1.54,4.09,3.45,4.09s3.45-.95,3.45-4.09-1.54-4.09-3.45-4.09-3.45.95-3.45,4.09Z"/>
            <path class="cls-2" d="M120.39,129.27c6.64,0,10.45,3.58,10.45,9.81s-3.81,9.81-10.45,9.81-10.45-3.58-10.45-9.81,3.81-9.81,10.45-9.81M120.39,143.39c1.67,0,3.66-.75,3.66-4.3s-1.99-4.3-3.66-4.3-3.66.75-3.66,4.3,1.99,4.3,3.66,4.3M120.39,129.06c-5.89,0-10.67,2.93-10.67,10.02s4.78,10.02,10.67,10.02,10.67-2.93,10.67-10.02-4.78-10.02-10.67-10.02h0ZM120.39,143.17c-1.91,0-3.45-.95-3.45-4.09s1.54-4.09,3.45-4.09,3.45.95,3.45,4.09-1.54,4.09-3.45,4.09h0Z"/>
          </g>
        </g>
        <g>
          <g>
            <path class="cls-3" d="M39.06,126.21l-2.03-10.07h3.74l1.37,6.81,1.37-6.81h3.74l-2.03,10.07h-6.18Z"/>
            <path class="cls-2" d="M46.97,116.38l-1.93,9.59h-5.78l-1.93-9.59h3.25l1.33,6.62.24,1.17.24-1.17,1.33-6.62h3.25M47.27,116.14h-3.74l-1.37,6.81-1.37-6.81h-3.74l2.03,10.07h6.18l2.03-10.07h0Z"/>
          </g>
          <g>
            <path class="cls-3" d="M49.39,126.21v-10.07h3.74v10.07h-3.74Z"/>
            <path class="cls-2" d="M52.89,116.38v9.59h-3.26v-9.59h3.26M53.13,116.14h-3.74v10.07h3.74v-10.07h0Z"/>
          </g>
          <g>
            <path class="cls-3" d="M57.28,126.21l-2.03-10.07h3.74l1.37,6.81,1.37-6.81h3.74l-2.03,10.07h-6.18Z"/>
            <path class="cls-2" d="M65.19,116.38l-1.93,9.59h-5.78l-1.93-9.59h3.25l1.33,6.62.24,1.17.24-1.17,1.33-6.62h3.25M65.48,116.14h-3.74l-1.37,6.81-1.37-6.81h-3.74l2.03,10.07h6.18l2.03-10.07h0Z"/>
          </g>
          <g>
            <path class="cls-3" d="M67.6,126.21v-10.07h8.98v3.11h-5.24v.79h3.99v2.27h-3.99v.79h5.24v3.11h-8.98Z"/>
            <path class="cls-2" d="M76.35,116.38v2.63h-5.24v1.27h3.99v1.79h-3.99v1.27h5.24v2.63h-8.5v-9.59h8.5M76.59,116.14h-8.98v10.07h8.98v-3.11h-5.24v-.79h3.99v-2.27h-3.99v-.79h5.24v-3.11h0Z"/>
          </g>
          <g>
            <path class="cls-3" d="M86.11,126.21v-10.07h8.98v3.11h-5.24v.79h3.99v2.27h-3.99v.79h5.24v3.11h-8.98Z"/>
            <path class="cls-2" d="M94.86,116.38v2.63h-5.24v1.27h3.99v1.79h-3.99v1.27h5.24v2.63h-8.5v-9.59h8.5M95.1,116.14h-8.98v10.07h8.98v-3.11h-5.24v-.79h3.99v-2.27h-3.99v-.79h5.24v-3.11h0Z"/>
          </g>
          <g>
            <path class="cls-3" d="M97.58,126.21v-10.07h3.74v6.96h4.15v3.11h-7.89Z"/>
            <path class="cls-2" d="M101.08,116.38v6.96h4.15v2.63h-7.41v-9.59h3.26M97.58,126.21h7.89v-3.11h-4.15v-6.96h-3.74v10.07"/>
          </g>
        </g>
        <g>
          <g>
            <path class="cls-3" d="M18.27,179.38h-6.55v-17.63h6.86l3.86,7.85,3.86-7.85h6.78v17.63h-6.55v-8.86l-2.24,4.55h-3.7l-2.31-4.71v9.01Z"/>
            <path class="cls-2" d="M32.86,161.96v17.21h-6.13v-9.56l-.4.82-2.18,4.43h-3.43l-2.26-4.59-.4-.82v9.72h-6.13v-17.21h6.51l3.8,7.73.19.39.19-.39,3.8-7.73h6.43M33.07,161.75h-6.78l-3.86,7.85-3.86-7.85h-6.86v17.63h6.55v-9.01l2.31,4.71h3.7l2.24-4.55v8.86h6.55v-17.63h0Z"/>
          </g>
          <g>
            <path class="cls-3" d="M34.94,172.3v-10.55h6.55v10.99c0,.85.71,1.54,1.58,1.54s1.58-.69,1.58-1.54v-10.99h6.55v10.55c0,5.78-3.64,7.37-8.14,7.37s-8.14-1.59-8.14-7.37Z"/>
            <path class="cls-2" d="M51,161.96v10.34c0,4.82-2.59,7.16-7.92,7.16s-7.92-2.34-7.92-7.16v-10.34h6.13v10.78c0,.96.81,1.75,1.8,1.75s1.79-.79,1.79-1.75v-10.78h6.13M51.22,161.75h-6.55v10.99c0,.85-.71,1.54-1.58,1.54s-1.58-.69-1.58-1.54v-10.99h-6.55v10.55c0,5.78,3.64,7.37,8.14,7.37s8.14-1.59,8.14-7.37v-10.55h0Z"/>
          </g>
          <g>
            <path class="cls-3" d="M59.65,179.38h-6.55v-17.63h6.64l4.17,8.53v-8.53h6.55v17.63h-6.64l-4.17-8.53v8.53Z"/>
            <path class="cls-2" d="M70.24,161.96v17.21h-6.29l-4.11-8.41-.4-.83v9.24h-6.13v-17.21h6.29l4.11,8.41.4.83v-9.24h6.13M70.46,161.75h-6.55v8.53l-4.17-8.53h-6.64v17.63h6.55v-8.53l4.17,8.53h6.64v-17.63h0Z"/>
          </g>
          <g>
            <path class="cls-3" d="M79.09,179.38h-6.55v-17.63h6.55v.05c5.35,0,9.69,2.32,9.69,8.77s-4.34,8.77-9.69,8.77v.05ZM79.09,173.94c1.73,0,3.13-.52,3.13-3.38s-1.4-3.38-3.13-3.38v6.75Z"/>
            <path class="cls-2" d="M78.88,161.96v.05h.21c3.54,0,9.47,1.11,9.47,8.55s-5.94,8.55-9.47,8.55h-.21v.05h-6.13v-17.21h6.13M78.88,174.15h.21c1.65,0,3.35-.43,3.35-3.59s-1.69-3.59-3.35-3.59h-.21v7.18M79.09,161.75h-6.55v17.63h6.55v-.05c5.35,0,9.69-2.32,9.69-8.77s-4.34-8.77-9.69-8.77v-.05h0ZM79.09,173.94v-6.75c1.73,0,3.13.52,3.13,3.38s-1.4,3.38-3.13,3.38h0Z"/>
          </g>
          <g>
            <path class="cls-3" d="M90.22,179.38v-17.63h6.55v17.63h-6.55Z"/>
            <path class="cls-2" d="M96.56,161.96v17.21h-6.13v-17.21h6.13M96.77,161.75h-6.55v17.63h6.55v-17.63h0Z"/>
          </g>
          <g>
            <path class="cls-3" d="M108.82,177.12h-3.89l-.45,2.26h-6.55l3.55-17.63h10.81l3.55,17.63h-6.55l-.46-2.26ZM108.02,173.14l-1.14-5.69-1.14,5.69h2.29Z"/>
            <path class="cls-2" d="M112.1,161.96l3.46,17.21h-6.12l-.42-2.09-.03-.17h-4.24l-.03.17-.42,2.09h-6.12l3.46-17.21h10.46M105.47,173.35h2.81l-.05-.25-1.15-5.69-.21-1.04-.21,1.04-1.15,5.69-.05.25M112.28,161.75h-10.81l-3.55,17.63h6.55l.46-2.26h3.89l.46,2.26h6.55l-3.55-17.63h0ZM105.73,173.14l1.15-5.69,1.15,5.69h-2.29Z"/>
          </g>
          <g>
            <path class="cls-3" d="M116.97,179.38v-17.63h6.55v12.19h7.26v5.44h-13.81Z"/>
            <path class="cls-2" d="M123.32,161.96v12.19h7.26v5.01h-13.39v-17.21h6.13M123.53,161.75h-6.55v17.63h13.81v-5.44h-7.26v-12.19h0Z"/>
          </g>
        </g>
        <g>
          <g>
            <path class="cls-3" d="M67.86,158.63h-1.93l-.23,1.12h-3.25l1.76-8.75h5.36l1.76,8.75h-3.25l-.23-1.12ZM67.47,156.66l-.57-2.82-.57,2.82h1.14Z"/>
            <path class="cls-2" d="M69.4,151.22l1.68,8.32h-2.82l-.19-.95-.03-.17h-2.28l-.03.17-.19.95h-2.82l1.68-8.32h5.02M66.07,156.87h1.66l-.05-.25-.57-2.82-.21-1.04-.21,1.04-.57,2.82-.05.25M69.58,151h-5.36l-1.76,8.75h3.25l.23-1.12h1.93l.23,1.12h3.25l-1.76-8.75h0ZM66.33,156.66l.57-2.82.57,2.82h-1.14Z"/>
          </g>
          <g>
            <path class="cls-3" d="M73.2,159.75v-8.75h3.25v6.05h3.6v2.7h-6.86Z"/>
            <path class="cls-2" d="M76.24,151.22v6.05h3.6v2.27h-6.43v-8.32h2.83M76.45,151h-3.25v8.75h6.86v-2.7h-3.6v-6.05h0Z"/>
          </g>
        </g>
        <g>
          <rect class="cls-1" x="84.02" y="153.95" width="46.15" height="2.92"/>
          <rect class="cls-1" x="12.33" y="153.95" width="46.15" height="2.92"/>
        </g>
      </g>
    </g>
  </g>
</svg>