<?xml version="1.0" encoding="UTF-8"?>
<svg id="Capa_2" data-name="Capa 2" xmlns="http://www.w3.org/2000/svg" viewBox="0 0 104.82 147.63">
  <defs>
    <style>
      .cls-1 {
        fill: #9c8c6d;
      }

      .cls-2 {
        fill: #fff;
      }

      .cls-3 {
        fill: #000c93;
      }
    </style>
  </defs>
  <g id="Capa_1-2" data-name="Capa 1">
    <g>
      <rect class="cls-2" width="104.82" height="147.63"/>
      <polygon class="cls-3" points="36.53 62.4 24.21 62.4 24.21 64.87 29.19 64.87 29.19 76.57 31.55 76.57 31.55 64.87 36.53 64.87 36.53 62.4"/>
      <rect class="cls-3" x="78.24" y="62.45" width="2.36" height="14.13"/>
      <path class="cls-3" d="M46.97,76.62c-3.86,0-6.99-3.28-6.99-7.32s3.14-7.32,6.99-7.32,6.99,3.28,6.99,7.32-3.14,7.32-6.99,7.32M46.97,64.46c-2.55,0-4.63,2.17-4.63,4.84s2.08,4.85,4.63,4.85,4.63-2.17,4.63-4.85-2.08-4.84-4.63-4.84"/>
      <polygon class="cls-3" points="61.74 76.32 61.74 66.41 68.86 76.32 71.59 76.32 71.59 62.91 69.23 62.91 69.23 72.71 62.19 62.91 59.38 62.91 59.38 76.32 61.74 76.32"/>
      <path class="cls-3" d="M60.23,27.29l4.06,1.25c.11.03.21-.07.19-.18-.87-3.42-3.39-2.07-4.3-1.45-.15.1-.11.32.06.37"/>
      <path class="cls-3" d="M67.61,54.94c-.23-.43-.75-.62-1.2-.43l-.63.26c-.33.14-.71,0-.88-.32l-7.12-13.65c-.07-.14-.01-.3.13-.36l.3-.13c.14-.06.31.02.35.17.73,2.51,2.12,1.65,2.71,1.13.18-.16.27-.39.26-.63l-.31-7.63s-.03-.1-.06-.13l-.62-.51.34-.49-.04.05,1.75.68c.33.08.65-.14.69-.47l.48-1.5.42.08c.09.01.17-.06.16-.16l-.18-1.69c-.04-.15-.15-.26-.3-.3l-3.83-1.16c-.28-.09-.58.03-.73.28l-1.22,2.09c-.09.16-.33.14-.4-.03l-.12-.31,1.89-3.66c.1-.19.04-.43-.13-.55l-3.36-2.34c-.24-.17-.57-.02-.61.27l-.2,1.78-7.98,12.56c-.12.19-.07.44.11.58l2.29,1.67c.43.32.55.91.27,1.37l-8.36,13.78c.1-.13,3.73,2.79,3.73,2.79l1.01-1.39c.15-.21.12-.5-.07-.67l-.88-.79c-.17-.15-.19-.4-.06-.57l.23-.32,1.17.36c.39.12.82-.02,1.05-.35l5.48-7.67c.37-.52,1.14-.51,1.5.02l5.6,8.29c.27.4.8.55,1.24.35l.63-.29,1.8,3.17,4.23-2.22-.54-1.01Z"/>
      <path class="cls-3" d="M67.37,46.12c-2,0-3.62,1.62-3.62,3.62s1.62,3.62,3.62,3.62,3.62-1.62,3.62-3.62-1.62-3.62-3.62-3.62M64.19,48.37v-.02s.18.12.18.12l.11,1.63h0c-.03.06-.07.13-.12.21-.08.13-.19.3-.25.45l-.02.05-.02-.05c-.07-.22-.11-.45-.14-.68-.01-.11-.02-.23-.02-.35,0-.21.02-.42.06-.62.05-.25.12-.5.22-.74M67.61,52.41l-1.45-.46h0c-.03-.09-.28-.79-.32-1.24v-.03s.96-.97.96-.97l1.68.54.26,1.21-1.11.95ZM65.55,47.58h0s1.07.41,1.07.41l.07,1.57-.96.97-1.11-.56-.1-1.53h0c.15-.18.44-.42.62-.57.14-.11.29-.23.4-.31M70.43,48.91v.02s-.93-.25-.93-.25l-1.05-1.36.06-.58h.02c.19.02.68.09.77.12h0s0,0,0,0c.21.16.52.41.67.58.21.24.44.61.56.85h0c0,.1-.08.53-.11.62M67.41,46.26h0c.08.03.14.06.21.1.05.02.1.05.16.08.2.09.37.17.48.23.02.01.04.02.05.03h.03s-.06.57-.06.57l-1.55.58-1.1-.43v-.02c.03-.17.15-.44.24-.65l-.04-.02.04.02c.03-.06.05-.12.07-.17h0s0-.01,0-.01c.23-.1.48-.18.73-.23.2-.04.47-.07.71-.07h0ZM65.14,52.39l-.03-.03h.04c.17-.04.47-.11.91-.27h0s1.52.48,1.52.48h0s.04.07.07.11h0c.08.14.19.32.3.45l.02.03h-.04c-.18.04-.37.05-.56.05-.3,0-.6-.04-.89-.12-.35-.09-.68-.24-.99-.44-.13-.08-.25-.17-.36-.27M69.87,51.61l-.99-.2-.27-1.21.9-1.33.89.24.02.07c.02.06.04.16.07.26.02.1.04.18.06.26.05.23.08.41.09.55h0s-.77,1.36-.77,1.36ZM70.78,50.43c-.07.31-.17.61-.32.89-.13.25-.27.46-.44.66l-.04.05s-.02.02-.03.03v-.28l.81-1.38.03.03Z"/>
      <path class="cls-3" d="M16.27,109.67c-4.33,0-7.85-2.15-7.85-7.37s3.51-7.37,7.85-7.37c3.92,0,7.18,1.83,7.57,5.97h-5.22c-.38-1.2-1.28-1.61-2.35-1.61-1.4,0-2.54.7-2.54,3.01s1.14,3.01,2.54,3.01c1.14,0,2.1-.46,2.42-1.88l5.2,1.01c-.84,3.68-3.93,5.24-7.62,5.24Z"/>
      <path class="cls-2" d="M16.27,95.08c4.23,0,6.98,2.11,7.4,5.66h-4.94c-.38-1.07-1.2-1.61-2.46-1.61s-2.69.55-2.69,3.16,1.47,3.17,2.69,3.17c1.35,0,2.2-.62,2.53-1.85l4.89.95c-.49,1.92-2.1,4.96-7.42,4.96-4.89,0-7.69-2.63-7.69-7.22s2.8-7.22,7.69-7.22M16.27,94.92c-4.33,0-7.85,2.16-7.85,7.37s3.51,7.37,7.85,7.37c3.68,0,6.77-1.56,7.62-5.24l-5.2-1.01c-.32,1.41-1.28,1.88-2.42,1.88-1.4,0-2.54-.7-2.54-3.01s1.14-3.01,2.54-3.01c1.06,0,1.97.41,2.35,1.61h5.22c-.39-4.14-3.65-5.97-7.57-5.97"/>
      <path class="cls-3" d="M32.88,107.61h-3.15l-.37,1.83h-5.31l2.88-14.28h8.76l2.88,14.28h-5.31l-.37-1.83ZM32.23,104.38l-.93-4.61-.93,4.61h1.86Z"/>
      <path class="cls-2" d="M35.55,95.31l2.81,13.97h-4.99l-.34-1.7-.03-.13h-3.41l-.03.13-.34,1.7h-4.99l2.81-13.97h8.5ZM30.18,104.54h2.24l-.04-.19-.93-4.61-.15-.76-.15.76-.93,4.61-.04.19M35.68,95.16h-8.76l-2.88,14.28h5.31l.37-1.83h3.15l.37,1.83h5.31l-2.88-14.28ZM30.37,104.38l.93-4.61.93,4.61h-1.85Z"/>
      <polygon class="cls-3" points="44.79 109.44 39.48 109.44 39.48 95.16 45.03 95.16 48.16 101.52 51.29 95.16 56.78 95.16 56.78 109.44 51.47 109.44 51.47 102.27 49.66 105.95 46.66 105.95 44.79 102.14 44.79 109.44"/>
      <path class="cls-2" d="M56.62,95.31v13.97h-4.99v-7.69l-.3.6-1.77,3.6h-2.8l-1.83-3.73-.3-.6v7.82h-4.99v-13.97h5.3l3.08,6.27.14.29.14-.29,3.08-6.27h5.24ZM56.78,95.16h-5.49l-3.13,6.36-3.13-6.36h-5.55v14.28h5.31v-7.3l1.88,3.82h2.99l1.81-3.69v7.17h5.31v-14.28Z"/>
      <rect class="cls-3" x="58.46" y="95.16" width="5.31" height="14.28"/>
      <path class="cls-2" d="M63.62,109.28h-4.99v-13.97h4.99v13.97ZM63.77,95.16h-5.31v14.28h5.31v-14.28Z"/>
      <polygon class="cls-3" points="70.76 109.44 65.46 109.44 65.46 95.16 70.83 95.16 74.21 102.07 74.21 95.16 79.52 95.16 79.52 109.44 74.14 109.44 70.76 102.53 70.76 109.44"/>
      <path class="cls-2" d="M79.36,95.31v13.97h-5.12l-3.34-6.82-.3-.61v7.43h-5v-13.97h5.12l3.34,6.82.3.61v-7.43h4.99ZM79.52,95.16h-5.31v6.91l-3.38-6.91h-5.38v14.28h5.31v-6.91l3.38,6.91h5.38v-14.28Z"/>
      <path class="cls-3" d="M80.7,102.3c0-5.22,3.51-7.37,7.85-7.37s7.85,2.16,7.85,7.37-3.51,7.37-7.85,7.37-7.85-2.16-7.85-7.37M86.01,102.3c0,2.31,1.14,3.01,2.54,3.01s2.54-.7,2.54-3.01-1.14-3.01-2.54-3.01-2.54.7-2.54,3.01"/>
      <path class="cls-2" d="M88.55,95.08c4.89,0,7.69,2.63,7.69,7.22s-2.8,7.22-7.69,7.22-7.69-2.63-7.69-7.22,2.8-7.22,7.69-7.22M88.55,105.46c1.23,0,2.69-.55,2.69-3.17s-1.47-3.16-2.69-3.16-2.69.55-2.69,3.16,1.47,3.17,2.69,3.17M88.55,94.92c-4.33,0-7.85,2.16-7.85,7.37s3.51,7.37,7.85,7.37,7.85-2.16,7.85-7.37-3.51-7.37-7.85-7.37M88.55,105.31c-1.4,0-2.54-.7-2.54-3.01s1.14-3.01,2.54-3.01,2.54.7,2.54,3.01-1.14,3.01-2.54,3.01"/>
      <polygon class="cls-3" points="28.73 92.83 27.24 85.43 29.99 85.43 31 90.44 32.01 85.43 34.77 85.43 33.27 92.83 28.73 92.83"/>
      <path class="cls-2" d="M34.55,85.6l-1.42,7.06h-4.25l-1.42-7.06h2.39l.98,4.87.17.86.17-.86.98-4.87h2.39ZM34.77,85.42h-2.75l-1.01,5.01-1.01-5.01h-2.75l1.49,7.41h4.54l1.49-7.41Z"/>
      <rect class="cls-3" x="36.33" y="85.42" width="2.75" height="7.41"/>
      <path class="cls-2" d="M38.9,92.66h-2.4v-7.06h2.4v7.06ZM39.08,85.42h-2.75v7.41h2.75v-7.41Z"/>
      <polygon class="cls-3" points="42.13 92.83 40.64 85.43 43.39 85.43 44.4 90.44 45.41 85.43 48.16 85.43 46.67 92.83 42.13 92.83"/>
      <path class="cls-2" d="M47.95,85.6l-1.42,7.06h-4.25l-1.42-7.06h2.39l.98,4.87.17.86.17-.86.98-4.87h2.39ZM48.16,85.42h-2.75l-1.01,5.01-1.01-5.01h-2.75l1.49,7.41h4.54l1.49-7.41Z"/>
      <polygon class="cls-3" points="49.72 92.83 49.72 85.43 56.33 85.43 56.33 87.71 52.48 87.71 52.48 88.29 55.41 88.29 55.41 89.97 52.48 89.97 52.48 90.55 56.33 90.55 56.33 92.83 49.72 92.83"/>
      <path class="cls-2" d="M56.15,85.6v1.93h-3.85v.94h2.94v1.32h-2.94v.94h3.85v1.93h-6.25v-7.06h6.25ZM56.33,85.42h-6.61v7.41h6.61v-2.29h-3.85v-.58h2.94v-1.67h-2.94v-.58h3.85v-2.29Z"/>
      <polygon class="cls-3" points="63.34 92.83 63.34 85.43 69.95 85.43 69.95 87.71 66.09 87.71 66.09 88.29 69.03 88.29 69.03 89.97 66.09 89.97 66.09 90.55 69.95 90.55 69.95 92.83 63.34 92.83"/>
      <path class="cls-2" d="M69.77,85.6v1.93h-3.85v.94h2.94v1.32h-2.94v.94h3.85v1.93h-6.25v-7.06h6.25ZM69.95,85.42h-6.61v7.41h6.61v-2.29h-3.85v-.58h2.94v-1.67h-2.94v-.58h3.85v-2.29Z"/>
      <polygon class="cls-3" points="71.77 92.83 71.77 85.43 74.53 85.43 74.53 90.55 77.58 90.55 77.58 92.83 71.77 92.83"/>
      <path class="cls-2" d="M74.35,85.6v5.12h3.05v1.93h-5.45v-7.06h2.4ZM71.77,92.83h5.8v-2.29h-3.05v-5.12h-2.75v7.41"/>
      <polygon class="cls-3" points="13.44 131.94 8.62 131.94 8.62 118.97 13.66 118.97 16.5 124.75 19.34 118.97 24.33 118.97 24.33 131.94 19.51 131.94 19.51 125.42 17.86 128.77 15.14 128.77 13.44 125.31 13.44 131.94"/>
      <path class="cls-2" d="M24.17,119.13v12.65h-4.51v-7.03l-.3.6-1.6,3.26h-2.52l-1.66-3.38-.3-.6v7.15h-4.51v-12.65h4.79l2.8,5.69.14.29.14-.29,2.8-5.69h4.73ZM24.33,118.97h-4.99l-2.84,5.78-2.84-5.78h-5.04v12.97h4.82v-6.63l1.7,3.46h2.72l1.65-3.35v6.51h4.82v-12.97Z"/>
      <path class="cls-3" d="M25.7,126.73v-7.76h4.82v8.08c0,.62.52,1.13,1.16,1.13s1.16-.51,1.16-1.13v-8.08h4.82v7.76c0,4.25-2.68,5.42-5.98,5.42s-5.98-1.17-5.98-5.42"/>
      <path class="cls-2" d="M37.52,119.13v7.6c0,3.54-1.91,5.27-5.83,5.27s-5.83-1.72-5.83-5.27v-7.6h4.51v7.93c0,.71.59,1.29,1.32,1.29s1.32-.58,1.32-1.29v-7.93h4.51ZM37.67,118.97h-4.82v8.09c0,.62-.52,1.13-1.16,1.13s-1.16-.51-1.16-1.13v-8.09h-4.82v7.76c0,4.25,2.68,5.42,5.99,5.42s5.98-1.17,5.98-5.42v-7.76Z"/>
      <polygon class="cls-3" points="43.87 131.94 39.05 131.94 39.05 118.97 43.93 118.97 47 125.24 47 118.97 51.82 118.97 51.82 131.94 46.94 131.94 43.87 125.66 43.87 131.94"/>
      <path class="cls-2" d="M51.67,119.13v12.65h-4.63l-3.03-6.19-.3-.61v6.79h-4.51v-12.65h4.63l3.03,6.19.3.61v-6.79h4.51ZM51.82,118.97h-4.82v6.28l-3.07-6.28h-4.88v12.97h4.82v-6.28l3.07,6.28h4.88v-12.97Z"/>
      <path class="cls-3" d="M58.17,131.94h-4.82v-12.97h4.82v.04c3.93,0,7.12,1.71,7.12,6.45s-3.19,6.45-7.12,6.45v.04ZM58.17,127.94c1.27,0,2.3-.38,2.3-2.48s-1.03-2.48-2.3-2.48v4.97Z"/>
      <path class="cls-2" d="M58.02,119.13v.04h.16c2.6,0,6.97.82,6.97,6.29s-4.37,6.29-6.97,6.29h-.16v.04h-4.51v-12.66h4.51ZM58.02,128.09h.16c1.22,0,2.46-.31,2.46-2.64s-1.24-2.64-2.46-2.64h-.16v5.28M58.17,118.97h-4.82v12.97h4.82v-.04c3.93,0,7.12-1.71,7.12-6.45s-3.19-6.45-7.12-6.45v-.04ZM58.17,127.94v-4.97c1.27,0,2.3.39,2.3,2.48s-1.03,2.48-2.3,2.48"/>
      <rect class="cls-3" x="66.36" y="118.97" width="4.82" height="12.97"/>
      <path class="cls-2" d="M71.02,131.78h-4.51v-12.66h4.51v12.66ZM71.18,118.97h-4.82v12.97h4.82v-12.97Z"/>
      <path class="cls-3" d="M80.04,130.28h-2.86l-.33,1.66h-4.82l2.61-12.97h7.95l2.61,12.97h-4.82l-.33-1.66ZM79.45,127.35l-.84-4.18-.84,4.18h1.68Z"/>
      <path class="cls-2" d="M82.46,119.13l2.55,12.66h-4.5l-.31-1.54-.02-.12h-3.12l-.03.12-.31,1.54h-4.5l2.55-12.66h7.69ZM77.58,127.51h2.07l-.04-.19-.84-4.18-.15-.76-.15.76-.84,4.18-.04.19M82.58,118.97h-7.95l-2.61,12.97h4.82l.33-1.66h2.86l.33,1.66h4.82l-2.61-12.97ZM77.77,127.35l.84-4.18.84,4.18h-1.68Z"/>
      <polygon class="cls-3" points="86.04 131.94 86.04 118.97 90.86 118.97 90.86 127.94 96.2 127.94 96.2 131.94 86.04 131.94"/>
      <path class="cls-2" d="M90.7,119.13v8.97h5.34v3.69h-9.85v-12.65h4.51ZM90.86,118.97h-4.82v12.97h10.16v-4h-5.34v-8.97Z"/>
      <path class="cls-3" d="M49.91,116.68h-1.42l-.17.83h-2.39l1.3-6.44h3.95l1.3,6.44h-2.39l-.17-.83ZM49.62,115.22l-.42-2.08-.42,2.08h.84Z"/>
      <path class="cls-2" d="M51.05,111.22l1.23,6.12h-2.07l-.14-.7-.03-.13h-1.68l-.03.13-.14.7h-2.07l1.23-6.12h3.69ZM48.6,115.38h1.22l-.04-.19-.42-2.08-.15-.76-.15.76-.42,2.08-.04.19M51.18,111.07h-3.95l-1.3,6.44h2.39l.17-.83h1.42l.17.83h2.39l-1.29-6.44ZM48.79,115.22l.42-2.08.42,2.08h-.84Z"/>
      <polygon class="cls-3" points="53.84 117.5 53.84 111.07 56.23 111.07 56.23 115.52 58.88 115.52 58.88 117.5 53.84 117.5"/>
      <path class="cls-2" d="M56.07,111.22v4.45h2.65v1.67h-4.73v-6.12h2.08ZM56.23,111.07h-2.39v6.44h5.04v-1.99h-2.65v-4.45Z"/>
      <rect class="cls-1" x="61.8" y="113.23" width="33.94" height="2.15"/>
      <rect class="cls-1" x="9.07" y="113.23" width="33.94" height="2.15"/>
    </g>
  </g>
</svg>